<?xml version="1.0" encoding="utf-8"?>
<!-- Generator: Adobe Illustrator 22.0.0, SVG Export Plug-In . SVG Version: 6.00 Build 0)  -->
<svg version="1.1" id="Logo__x2014__FIXED" xmlns="http://www.w3.org/2000/svg" xmlns:xlink="http://www.w3.org/1999/xlink" x="0px"
	 y="0px" viewBox="0 0 400 400" style="enable-background:new 0 0 400 400;" xml:space="preserve">
<style type="text/css">
	.st0{fill:#FFFFFF;}
</style>
<g>
	<path class="st0" d="M226.3,75.1L226.3,75.1L173.8,75l0,0l0,0C118.4,75,75,118.4,75,173.8c0,51.9,40.3,91.2,94.5,93.3v48.5
		c0,1.4,0.5,3.6,1.5,5.1c1.8,2.8,4.9,4.4,8,4.4c1.7,0,3.5-0.5,5.1-1.5c3.3-2.1,81.9-52.4,102.4-69.7c24.1-20.4,38.5-50.2,38.5-79.9
		v0c0,0,0,0,0-0.1c0,0,0,0,0-0.1C324.9,118.4,281.6,75.1,226.3,75.1z M274.2,239.3c-14.4,12.2-61.5,43.1-85.7,58.8v-40.3
		c0-5.2-4.3-9.5-9.5-9.5c-0.9,0-4.1,0-5,0c-46.3,0-80-31.3-80-74.5C94,129,129,94,173.7,94l52.5,0.1c0,0,0,0,0,0
		c44.7,0,79.7,35,79.8,79.7C306,198,294.1,222.5,274.2,239.3z"/>
</g>
</svg>
