<?xml version="1.0" encoding="utf-8"?>
<!-- Generator: Adobe Illustrator 22.0.0, SVG Export Plug-In . SVG Version: 6.00 Build 0)  -->
<svg version="1.1" id="Logo__x2014__FIXED" xmlns="http://www.w3.org/2000/svg" xmlns:xlink="http://www.w3.org/1999/xlink" x="0px"
	 y="0px" viewBox="0 0 400 400" style="enable-background:new 0 0 400 400;" xml:space="preserve">
<style type="text/css">
	.st0{fill:#FFFFFF;}
</style>
<g>
	<path class="st0" d="M322.9,232.7c-2.8-2.8-7.4-2.8-10.2,0l-24.5,24.5V152.4c0-19.9-16.2-36.1-36.1-36.1h-64c-4,0-7.2,3.2-7.2,7.2
		c0,4,3.2,7.2,7.2,7.2h64c11.9,0,21.6,9.7,21.6,21.6v104.8l-24.5-24.5c-2.8-2.8-7.4-2.8-10.2,0c-2.8,2.8-2.8,7.4,0,10.2l36.8,36.8
		c1.4,1.4,3.2,2.1,5.1,2.1c1.9,0,3.7-0.8,5.1-2.1l36.8-36.8C325.7,240.1,325.7,235.5,322.9,232.7z"/>
	<path class="st0" d="M211.9,269.3h-64c-11.9,0-21.6-9.7-21.6-21.6V142.8l24.5,24.5c1.4,1.4,3.3,2.1,5.1,2.1c1.9,0,3.7-0.7,5.1-2.1
		c2.8-2.8,2.8-7.4,0-10.2l-36.8-36.8c-2.8-2.8-7.4-2.8-10.2,0l-36.8,36.8c-2.8,2.8-2.8,7.4,0,10.2s7.4,2.8,10.2,0l24.5-24.5v104.8
		c0,19.9,16.2,36.1,36.1,36.1h64c4,0,7.2-3.2,7.2-7.2C219.1,272.5,215.9,269.3,211.9,269.3z"/>
</g>
</svg>
